<svg xmlns="http://www.w3.org/2000/svg" version="1.1" xmlns:xlink="http://www.w3.org/1999/xlink" width="1000" height="1000"><svg width="1000" height="1000" viewBox="0 0 1000 1000" fill="none" xmlns="http://www.w3.org/2000/svg">
<rect width="1000" height="1000" rx="120" fill="white"></rect>
<g clip-path="url(#clip0_3_2)">
<path d="M800.833 439.833V332.135C800.832 325.098 800.43 318.067 799.63 311.077C795.611 274.277 780.248 239.637 755.67 211.954C731.093 184.272 698.515 164.916 662.45 156.569C555.405 133.253 444.595 133.253 337.55 156.569C301.487 164.921 268.912 184.277 244.335 211.959C219.757 239.641 204.394 274.278 200.37 311.077C199.57 318.067 199.168 325.098 199.167 332.135V439.833C183.209 439.833 167.906 446.172 156.622 457.456C145.339 468.739 139 484.043 139 500V530.083C139 546.04 145.339 561.344 156.622 572.627C167.906 583.911 183.209 590.25 199.167 590.25V650.417C199.153 673.77 204.583 696.806 215.027 717.694C225.472 738.583 240.642 756.749 259.333 770.75V785.792C259.315 804.442 266.227 822.435 278.728 836.276C291.229 850.118 308.427 858.82 326.983 860.695C345.54 862.569 364.131 857.482 379.147 846.42C394.164 835.358 404.534 819.111 408.246 800.833H591.754C595.466 819.111 605.836 835.358 620.853 846.42C635.869 857.482 654.46 862.569 673.017 860.695C691.573 858.82 708.771 850.118 721.272 836.276C733.773 822.435 740.685 804.442 740.667 785.792V770.75C759.358 756.749 774.528 738.583 784.973 717.694C795.417 696.806 800.847 673.77 800.833 650.417V590.25C816.791 590.25 832.094 583.911 843.378 572.627C854.661 561.344 861 546.04 861 530.083V500C861 484.043 854.661 468.739 843.378 457.456C832.094 446.172 816.791 439.833 800.833 439.833ZM259.333 530.083C259.333 530.083 273.435 475.078 273.435 439.833C273.435 404.588 259.333 349.583 259.333 349.583H740.667C740.667 349.583 726.565 404.588 726.565 439.833C726.565 475.078 740.667 530.083 740.667 530.083H259.333ZM351.148 215.171C449.275 193.825 550.845 193.825 648.973 215.171C668.037 219.614 685.699 228.724 700.371 241.684C715.042 254.644 726.263 271.046 733.026 289.417H620.333C620.333 281.438 617.164 273.786 611.522 268.144C605.88 262.503 598.229 259.333 590.25 259.333H409.75C401.771 259.333 394.12 262.503 388.478 268.144C382.836 273.786 379.667 281.438 379.667 289.417H266.975C273.748 271.032 284.987 254.62 299.681 241.659C314.374 228.698 332.061 219.596 351.148 215.171ZM650.417 740.667H349.583C325.648 740.667 302.692 731.158 285.767 714.233C268.842 697.308 259.333 674.352 259.333 650.417V590.25H319.5V620.333C319.5 628.312 322.669 635.964 328.311 641.605C333.953 647.247 341.605 650.417 349.583 650.417C357.562 650.417 365.214 647.247 370.855 641.605C376.497 635.964 379.667 628.312 379.667 620.333V590.25H620.333V620.333C620.333 628.312 623.503 635.964 629.145 641.605C634.786 647.247 642.438 650.417 650.417 650.417C658.395 650.417 666.047 647.247 671.689 641.605C677.331 635.964 680.5 628.312 680.5 620.333V590.25H740.667V650.417C740.667 674.352 731.158 697.308 714.233 714.233C697.308 731.158 674.352 740.667 650.417 740.667Z" fill="#BC2C36"></path>
</g>
<defs>
<clipPath id="SvgjsClipPath1002">
<rect width="722" height="722" fill="white" transform="translate(139 139)"></rect>
</clipPath>
</defs>
</svg><style>@media (prefers-color-scheme: light) { :root { filter: none; } }
@media (prefers-color-scheme: dark) { :root { filter: none; } }
</style></svg>